<svg width="460" height="90" viewBox="0 0 460 90" fill="none" xmlns="http://www.w3.org/2000/svg">
<path d="M35.3027 35.9996H29.3945C26.888 35.9996 25.0814 35.3494 23.9746 34.0499C22.8678 32.7167 22.3145 30.9667 22.3145 28.7999C22.3145 23.9994 25.8138 21.6002 32.8125 21.6002C39.388 21.6002 44.3359 22.5996 47.6562 24.5995L44.8242 26.8C42.5456 25.733 38.5417 25.1995 32.8125 25.1995C30.013 25.1995 28.125 25.5169 27.1484 26.1498C26.2044 26.7836 25.7324 27.6663 25.7324 28.7999C25.7324 29.9334 25.9928 30.8161 26.5137 31.45C27.0345 32.0828 27.9948 32.4002 29.3945 32.4002H35.4492C39.8437 32.4002 43.7988 33.1662 47.3145 34.7001C50.8626 36.2331 53.776 38.3333 56.0547 40.9998C58.3333 43.6335 60.0749 46.6829 61.2793 50.1502C62.4837 53.5826 63.0859 57.2659 63.0859 61.2001C63.0859 64.4001 62.6465 67.4332 61.7676 70.2994C60.8887 73.1666 59.554 75.7992 57.7637 78.1995C56.0059 80.5997 53.8737 82.6825 51.3672 84.45C48.8932 86.1826 45.931 87.5332 42.4805 88.4999C39.0625 89.4993 35.3516 90 31.3477 90C25.0651 90 19.1732 89.016 13.6719 87.0499C8.2031 85.1166 3.6458 82.3999 0 78.8999L2.832 76.7495C6.1523 79.8164 10.3027 82.1992 15.2832 83.9001C20.2962 85.5661 25.651 86.3996 31.3477 86.3996C35.8073 86.3996 39.8275 85.7494 43.4082 84.45C47.0215 83.1167 49.9837 81.3002 52.2949 78.9992C54.6387 76.6993 56.429 74.0328 57.666 70.9998C58.9355 67.9667 59.5703 64.7001 59.5703 61.2001C59.5703 56.5665 58.6589 52.3835 56.8359 48.65C55.013 44.8828 52.2298 41.8333 48.4863 39.4996C44.7754 37.167 40.3809 35.9996 35.3027 35.9996ZM29.3945 39.6H34.9609C41.569 39.6 46.7285 41.6664 50.4395 45.8002C54.1829 49.9331 56.0547 55.0664 56.0547 61.2001C56.0547 67.4332 53.89 72.5993 49.5605 76.6993C45.2311 80.7666 39.1602 82.7993 31.3477 82.7993C26.1393 82.7993 21.2728 82.0661 16.748 80.5997C12.2233 79.1334 8.4635 77.0659 5.4687 74.3994L8.2031 72.1497C10.8724 74.3831 14.2253 76.1167 18.2617 77.3496C22.3307 78.5835 26.6927 79.1999 31.3477 79.1999C38.2161 79.1999 43.457 77.5165 47.0703 74.1496C50.7161 70.7827 52.5391 66.4665 52.5391 61.2001C52.5391 55.9992 51.0091 51.6995 47.9492 48.2998C44.9219 44.9002 40.5762 43.1993 34.9121 43.1993H29.3945C24.6419 43.1993 21.0775 41.8661 18.7012 39.1996C16.3249 36.5331 15.1367 33.0669 15.1367 28.7999C15.1367 24.5329 16.6016 21.0667 19.5312 18.4002C22.4935 15.7337 26.9206 14.4004 32.8125 14.4004C36.9466 14.4004 40.7878 14.9002 44.3359 15.8996C47.8841 16.8662 50.8138 18.2671 53.125 20.1L50.3418 22.2996C46.2728 19.4334 40.4297 17.9998 32.8125 17.9998C27.8971 17.9998 24.3001 19.0002 22.0215 21.0001C19.7754 22.9662 18.6523 25.5661 18.6523 28.7999C18.6523 32.0664 19.4824 34.6827 21.1426 36.6498C22.8353 38.6169 25.5859 39.6 29.3945 39.6ZM29.3945 46.7997H34.7656C39.5182 46.7997 43.0827 48.1493 45.459 50.8496C47.8353 53.5498 49.0234 56.9997 49.0234 61.2001C49.0234 65.4661 47.5423 68.9333 44.5801 71.5998C41.6504 74.2663 37.2396 75.5996 31.3477 75.5996C27.2135 75.5996 23.3561 75.1162 19.7754 74.1496C16.2272 73.1501 13.2975 71.7329 10.9863 69.9L13.7695 67.6994C17.8385 70.5666 23.6979 72.0002 31.3477 72.0002C36.263 72.0002 39.8437 71.0162 42.0898 69.0501C44.3685 67.0502 45.5078 64.4329 45.5078 61.2001C45.5078 57.9663 44.6615 55.3664 42.9687 53.3993C41.276 51.3995 38.5254 50.4 34.7168 50.4H29.3945C22.7214 50.4 17.4967 48.3664 13.7207 44.3001C9.9772 40.2 8.1055 35.0329 8.1055 28.7999C8.1055 22.5668 10.2702 17.4161 14.5996 13.3498C18.929 9.24974 25 7.19972 32.8125 7.19972C38.0208 7.19972 42.8711 7.93289 47.3633 9.40027C51.888 10.8666 55.6478 12.9331 58.6426 15.5996L55.9082 17.8503C53.2389 15.617 49.8861 13.8833 45.8496 12.6504C41.8131 11.4165 37.4674 10.8001 32.8125 10.8001C25.944 10.8001 20.6868 12.4835 17.041 15.8504C13.4277 19.2163 11.6211 23.5335 11.6211 28.7999C11.6211 34.0335 13.151 38.3497 16.2109 41.7493C19.2708 45.1162 23.6654 46.7997 29.3945 46.7997ZM29.3945 53.9994H34.7656C37.2721 53.9994 39.0788 54.666 40.1855 55.9993C41.2923 57.3335 41.8457 59.0661 41.8457 61.2001C41.8457 65.9996 38.3464 68.3998 31.3477 68.3998C24.7396 68.3998 19.7754 67.3994 16.4551 65.3995L19.2871 63.2C21.5658 64.266 25.5859 64.7995 31.3477 64.7995C34.1471 64.7995 36.0189 64.4831 36.9629 63.8502C37.9395 63.2164 38.4277 62.3327 38.4277 61.2001C38.4277 60.0993 38.151 59.233 37.5977 58.6002C37.0768 57.9336 36.1003 57.5998 34.668 57.5998H29.3945C24.9023 57.5998 20.8333 56.8502 17.1875 55.3501C13.5742 53.8499 10.5957 51.7835 8.2519 49.1497C5.9408 46.516 4.1667 43.4666 2.9297 40.0003C1.6927 36.5331 1.0742 32.7996 1.0742 28.7999C1.0742 25.5999 1.5137 22.5668 2.3926 19.6996C3.2715 16.8335 4.5898 14.1998 6.3477 11.7995C8.138 9.40029 10.2702 7.33283 12.7441 5.60023C15.2506 3.83281 18.2129 2.4668 21.6309 1.50015C25.0814 0.499706 28.8086 0 32.8125 0C39.095 0 44.9707 0.983048 50.4395 2.95014C55.9082 4.88345 60.4655 7.60009 64.1113 11.1001L61.2793 13.2495C57.959 10.1836 53.8086 7.81617 48.8281 6.15013C43.8477 4.4503 38.5091 3.60036 32.8125 3.60036C28.3529 3.60036 24.3164 4.26698 20.7031 5.60023C17.1224 6.89968 14.1602 8.69987 11.8164 10.9998C9.5052 13.2997 7.7148 15.9661 6.4453 19.0002C5.2083 22.0333 4.5898 25.2999 4.5898 28.7999C4.5898 33.5 5.5176 37.7332 7.373 41.4995C9.2285 45.2668 12.0605 48.2998 15.8691 50.5997C19.6777 52.8669 24.1862 53.9994 29.3945 53.9994ZM95.5077 86.3996H91.9917V3.60036H95.5077V86.3996ZM88.4767 86.3996H84.9607V3.60036H88.4767V86.3996ZM81.4457 86.3996H77.9297V3.60036H81.4457V86.3996ZM74.4141 86.3996H70.8984V3.60036H74.4141V86.3996ZM121.192 44.9995L141.846 3.60036H145.752L125.098 44.9995L145.752 86.3996H141.846L121.192 44.9995ZM113.33 44.9995L133.985 3.60036H137.891L117.237 44.9995L137.891 86.3996H133.985L113.33 44.9995ZM105.469 44.9995L126.123 3.60036H130.03L109.375 44.9995L130.03 86.3996H126.123L105.469 44.9995ZM97.5587 44.9995L118.262 3.60036H122.168L101.465 44.9995L122.168 86.3996H118.262L97.5587 44.9995Z" fill="#0099FF"/>
<path d="M187.938 43.033C188.875 43.3246 189.729 43.7413 190.5 44.283C191.271 44.8246 191.927 45.5225 192.469 46.3767C193.01 47.21 193.427 48.1996 193.719 49.3455C194.01 50.4913 194.156 51.8038 194.156 53.283V55.533C194.156 62.783 190.531 66.408 183.281 66.408H158.75V21.5955H182C189.25 21.5955 192.875 25.2309 192.875 32.5017V33.3142C192.875 35.835 192.469 37.8975 191.656 39.5017C190.865 41.085 189.625 42.2621 187.938 43.033ZM165.031 46.8767V60.1267H183.094C184.781 60.1267 186 59.7309 186.75 58.9392C187.5 58.1475 187.875 56.908 187.875 55.2205V51.7517C187.875 50.0434 187.5 48.8038 186.75 48.033C186 47.2621 184.781 46.8767 183.094 46.8767H165.031ZM165.031 27.8767V40.6267H182.25C183.792 40.5642 184.896 40.1475 185.562 39.3767C186.25 38.585 186.594 37.3767 186.594 35.7517V32.8142C186.594 31.1059 186.219 29.8559 185.469 29.0642C184.719 28.2725 183.5 27.8767 181.812 27.8767H165.031ZM242.156 60.0017C242.156 60.8767 241.99 61.71 241.656 62.5017C241.323 63.2725 240.865 63.9496 240.281 64.533C239.698 65.1163 239.01 65.5746 238.219 65.908C237.448 66.2413 236.625 66.408 235.75 66.408H210.156C209.281 66.408 208.448 66.2413 207.656 65.908C206.885 65.5746 206.208 65.1163 205.625 64.533C205.042 63.9496 204.583 63.2725 204.25 62.5017C203.917 61.71 203.75 60.8767 203.75 60.0017V28.0017C203.75 27.1267 203.917 26.3038 204.25 25.533C204.583 24.7413 205.042 24.0642 205.625 23.5017C206.208 22.9184 206.885 22.46 207.656 22.1267C208.448 21.7725 209.281 21.5955 210.156 21.5955H235.75C236.625 21.5955 237.448 21.7725 238.219 22.1267C239.01 22.46 239.698 22.9184 240.281 23.5017C240.865 24.0642 241.323 24.7413 241.656 25.533C241.99 26.3038 242.156 27.1267 242.156 28.0017V60.0017ZM210.156 28.0017V60.0017H235.75V28.0017H210.156ZM292.094 60.0017C292.094 60.8767 291.927 61.71 291.594 62.5017C291.26 63.2725 290.802 63.9496 290.219 64.533C289.635 65.1163 288.948 65.5746 288.156 65.908C287.385 66.2413 286.562 66.408 285.688 66.408H260.094C259.219 66.408 258.385 66.2413 257.594 65.908C256.823 65.5746 256.146 65.1163 255.562 64.533C254.979 63.9496 254.521 63.2725 254.188 62.5017C253.854 61.71 253.688 60.8767 253.688 60.0017V28.0017C253.688 27.1267 253.854 26.3038 254.188 25.533C254.521 24.7413 254.979 24.0642 255.562 23.5017C256.146 22.9184 256.823 22.46 257.594 22.1267C258.385 21.7725 259.219 21.5955 260.094 21.5955H285.688C286.562 21.5955 287.385 21.7725 288.156 22.1267C288.948 22.46 289.635 22.9184 290.219 23.5017C290.802 24.0642 291.26 24.7413 291.594 25.533C291.927 26.3038 292.094 27.1267 292.094 28.0017V60.0017ZM260.094 28.0017V60.0017H285.688V28.0017H260.094ZM310.031 21.5955V40.9392L331.406 21.5955H340.438L316.188 43.5642L341.406 66.408H332.375L310.031 46.2517V66.408H303.625V21.5955H310.031ZM353.656 21.5955V66.408H347.25V21.5955H353.656ZM371.594 66.408H365.188V21.5955H371.594L398.531 56.3455V21.5955H404.938V66.408H398.531L371.594 31.658V66.408ZM416.438 28.0017C416.438 27.1267 416.604 26.3038 416.938 25.533C417.271 24.7413 417.729 24.0642 418.312 23.5017C418.896 22.9184 419.573 22.46 420.344 22.1267C421.135 21.7725 421.969 21.5955 422.844 21.5955H447.156C448.031 21.5955 448.854 21.7725 449.625 22.1267C450.417 22.46 451.104 22.9184 451.688 23.5017C452.271 24.0642 452.729 24.7413 453.062 25.533C453.396 26.3038 453.562 27.1267 453.562 28.0017V33.783H447.156V28.0017H422.844V60.0017H447.156V49.1267H435V42.7205H453.562V60.0017C453.562 60.8767 453.396 61.71 453.062 62.5017C452.729 63.2725 452.271 63.9496 451.688 64.533C451.104 65.1163 450.417 65.5746 449.625 65.908C448.854 66.2413 448.031 66.408 447.156 66.408H422.844C421.969 66.408 421.135 66.2413 420.344 65.908C419.573 65.5746 418.896 65.1163 418.312 64.533C417.729 63.9496 417.271 63.2725 416.938 62.5017C416.604 61.71 416.438 60.8767 416.438 60.0017V28.0017Z" fill="#0099FF"/>
</svg>
