<svg width="151" height="130" viewBox="0 0 151 130" fill="none" xmlns="http://www.w3.org/2000/svg">
<path d="M37.9444 36.272H31.9322C29.3816 36.272 27.5432 35.6168 26.417 34.3076C25.2907 32.9642 24.7276 31.201 24.7276 29.0178C24.7276 24.181 28.2885 21.7636 35.4104 21.7636C42.1016 21.7636 47.1365 22.7706 50.5153 24.7856L47.6334 27.0028C45.3147 25.9277 41.2404 25.3902 35.4104 25.3902C32.5616 25.3902 30.6404 25.71 29.6466 26.3476C28.686 26.9863 28.2057 27.8756 28.2057 29.0178C28.2057 30.1599 28.4707 31.0493 29.0007 31.688C29.5307 32.3256 30.5079 32.6454 31.9322 32.6454H38.0935C42.5653 32.6454 46.59 33.4171 50.1675 34.9627C53.7781 36.5072 56.7427 38.6233 59.0615 41.31C61.3802 43.9636 63.1525 47.0362 64.3781 50.5297C65.6037 53.9881 66.2164 57.6992 66.2164 61.6632C66.2164 64.8874 65.7693 67.9434 64.875 70.8313C63.9806 73.7202 62.6224 76.3728 60.8006 78.7912C59.0119 81.2096 56.8422 83.3081 54.2916 85.0889C51.774 86.8346 48.7597 88.1955 45.2485 89.1695C41.7703 90.1765 37.9941 90.681 33.9198 90.681C27.5266 90.681 21.5311 89.6895 15.933 87.7085C10.3679 85.7606 5.73046 83.0234 2.02051 79.4969L4.90234 77.3302C8.28106 80.4203 12.5045 82.8211 17.5726 84.5349C22.6738 86.2135 28.1229 87.0534 33.9198 87.0534C38.4579 87.0534 42.5488 86.3982 46.1925 85.0889C49.8694 83.7456 52.8837 81.9153 55.2356 79.597C57.6206 77.2797 59.4424 74.593 60.7012 71.537C61.993 68.481 62.639 65.1897 62.639 61.6632C62.639 56.9945 61.7116 52.7799 59.8565 49.0182C58.0015 45.2224 55.1693 42.1498 51.36 39.7985C47.5838 37.4482 43.1119 36.272 37.9444 36.272ZM31.9322 39.8996H37.5966C44.3209 39.8996 49.5712 41.9816 53.3475 46.1468C57.1568 50.3109 59.0615 55.483 59.0615 61.6632C59.0615 67.9434 56.8587 73.1486 52.4531 77.2797C48.0475 81.3778 41.8698 83.4258 33.9198 83.4258C28.6197 83.4258 23.6676 82.687 19.0632 81.2096C14.4589 79.7321 10.6329 77.649 7.58543 74.9624L10.3679 72.6956C13.0842 74.9459 16.4961 76.6926 20.6035 77.9348C24.7441 79.1781 29.1829 79.7992 33.9198 79.7992C40.909 79.7992 46.2422 78.103 49.919 74.7106C53.629 71.3182 55.4841 66.9694 55.4841 61.6632C55.4841 56.423 53.9272 52.0907 50.8134 48.6653C47.7328 45.2399 43.3107 43.5262 37.5469 43.5262H31.9322C27.096 43.5262 23.4689 42.1828 21.0508 39.4962C18.6327 36.8095 17.4235 33.3171 17.4235 29.0178C17.4235 24.7185 18.9142 21.2261 21.8954 18.5394C24.9098 15.8527 29.4148 14.5094 35.4104 14.5094C39.6172 14.5094 43.526 15.0129 47.1365 16.0199C50.7472 16.9939 53.7284 18.4053 56.0803 20.2521L53.2481 22.4683C49.1075 19.5804 43.1616 18.136 35.4104 18.136C30.4085 18.136 26.7482 19.144 24.4295 21.159C22.1439 23.1399 21.001 25.7595 21.001 29.0178C21.001 32.3091 21.8457 34.9451 23.5351 36.9271C25.2576 38.9091 28.0566 39.8996 31.9322 39.8996ZM31.9322 47.1538H37.3978C42.2341 47.1538 45.8613 48.5136 48.2794 51.2343C50.6975 53.955 51.9065 57.431 51.9065 61.6632C51.9065 65.9614 50.3993 69.4549 47.385 72.1416C44.4038 74.8282 39.9154 76.1716 33.9198 76.1716C29.7128 76.1716 25.7876 75.6846 22.1439 74.7106C18.5332 73.7036 15.552 72.2757 13.2001 70.4289L16.0323 68.2117C20.1729 71.1006 26.1354 72.545 33.9198 72.545C38.9216 72.545 42.5653 71.5535 44.8509 69.5725C47.1697 67.5575 48.3291 64.9204 48.3291 61.6632C48.3291 58.4049 47.4679 55.7854 45.7453 53.8034C44.0228 51.7884 41.2238 50.7814 37.3482 50.7814H31.9322C25.1417 50.7814 19.8251 48.7323 15.9826 44.6353C12.1733 40.5042 10.2686 35.298 10.2686 29.0178C10.2686 22.7376 12.4714 17.5479 16.877 13.4508C21.2826 9.31973 27.4604 7.2542 35.4104 7.2542C40.7103 7.2542 45.646 7.99291 50.2172 9.4714C54.8215 10.9489 58.6475 13.0309 61.695 15.7176L58.9125 17.9854C56.1962 15.7351 52.7844 13.9884 48.6769 12.7462C44.5693 11.5029 40.1472 10.8818 35.4104 10.8818C28.421 10.8818 23.0713 12.578 19.3614 15.9704C15.6845 19.3617 13.8461 23.7115 13.8461 29.0178C13.8461 34.291 15.4029 38.6398 18.5167 42.0652C21.6304 45.4576 26.1023 47.1538 31.9322 47.1538ZM31.9322 54.408H37.3978C39.9484 54.408 41.7869 55.0796 42.9131 56.423C44.0394 57.7673 44.6025 59.513 44.6025 61.6632C44.6025 66.499 41.0416 68.9174 33.9198 68.9174C27.1954 68.9174 22.1439 67.9094 18.7651 65.8944L21.647 63.6782C23.9658 64.7522 28.0566 65.2898 33.9198 65.2898C36.7685 65.2898 38.6732 64.971 39.6338 64.3333C40.6276 63.6947 41.1244 62.8043 41.1244 61.6632C41.1244 60.5541 40.8428 59.6812 40.2798 59.0436C39.7497 58.3719 38.756 58.0356 37.2985 58.0356H31.9322C27.361 58.0356 23.2204 57.2804 19.5104 55.7688C15.8336 54.2573 12.8026 52.1753 10.4176 49.5216C8.06584 46.868 6.26052 43.7954 5.00176 40.303C3.74299 36.8095 3.11361 33.0478 3.11361 29.0178C3.11361 25.7936 3.56084 22.7376 4.45521 19.8487C5.34957 16.9608 6.69107 14.3072 8.4799 11.8888C10.3017 9.47142 12.4714 7.38831 14.9888 5.6426C17.5395 3.86181 20.5539 2.48547 24.032 1.5115C27.5432 0.503487 31.336 0 35.4104 0C41.8034 0 47.7825 0.990486 53.3475 2.97247C58.9125 4.9204 63.5499 7.6576 67.2599 11.1841L64.3781 13.3497C60.9993 10.2607 56.7759 7.87531 51.7078 6.19666C46.6397 4.48397 41.2072 3.6276 35.4104 3.6276C30.8723 3.6276 26.7648 4.29927 23.0879 5.6426C19.4442 6.95188 16.4299 8.7657 14.0448 11.083C11.693 13.4003 9.87105 16.0869 8.57922 19.144C7.32045 22.2 6.69107 25.4913 6.69107 29.0178C6.69107 33.7535 7.6352 38.0187 9.52324 41.8135C11.4114 45.6093 14.2932 48.6653 18.1688 50.9826C22.0445 53.2669 26.6323 54.408 31.9322 54.408ZM99.2087 87.0534H95.6309V3.6276H99.2087V87.0534ZM92.054 87.0534H88.4761V3.6276H92.054V87.0534ZM84.8993 87.0534H81.3214V3.6276H84.8993V87.0534ZM77.744 87.0534H74.1664V3.6276H77.744V87.0534ZM125.345 45.34L146.362 3.6276H150.337L129.319 45.34L150.337 87.0534H146.362L125.345 45.34ZM117.344 45.34L138.363 3.6276H142.338L121.32 45.34L142.338 87.0534H138.363L117.344 45.34ZM109.345 45.34L130.362 3.6276H134.338L113.32 45.34L134.338 87.0534H130.362L109.345 45.34ZM101.296 45.34L122.363 3.6276H126.338L105.271 45.34L126.338 87.0534H122.363L101.296 45.34Z" fill="#0099FF"/>
<path d="M15.7255 117.942C16.2025 118.093 16.6371 118.307 17.0293 118.587C17.4215 118.866 17.7554 119.226 18.031 119.667C18.3066 120.097 18.5186 120.607 18.667 121.198C18.8154 121.79 18.8896 122.467 18.8896 123.23V124.39C18.8896 128.131 17.0452 130.001 13.3564 130.001H0.875V106.883H12.7046C16.3933 106.883 18.2377 108.758 18.2377 112.509V112.928C18.2377 114.229 18.031 115.293 17.6176 116.12C17.2148 116.937 16.5841 117.544 15.7255 117.942ZM4.07089 119.925V126.76H13.261C14.1196 126.76 14.7397 126.556 15.1213 126.148C15.5029 125.739 15.6937 125.1 15.6937 124.229V122.44C15.6937 121.559 15.5029 120.919 15.1213 120.521C14.7397 120.124 14.1196 119.925 13.261 119.925H4.07089ZM4.07089 110.123V116.701H12.8318C13.6161 116.669 14.1779 116.454 14.5171 116.056C14.8669 115.648 15.0418 115.024 15.0418 114.186V112.67C15.0418 111.789 14.851 111.144 14.4694 110.736C14.0878 110.328 13.4677 110.123 12.6092 110.123H4.07089Z" fill="#0099FF"/>
<path d="M43.3119 126.696C43.3119 127.147 43.2271 127.577 43.0575 127.985C42.8879 128.383 42.6547 128.732 42.3579 129.033C42.0611 129.334 41.7113 129.571 41.3085 129.743C40.9163 129.915 40.4976 130.001 40.0524 130.001H27.0304C26.5852 130.001 26.1612 129.915 25.7584 129.743C25.3662 129.571 25.0217 129.334 24.7249 129.033C24.4281 128.732 24.1949 128.383 24.0253 127.985C23.8557 127.577 23.7709 127.147 23.7709 126.696V110.188C23.7709 109.736 23.8557 109.312 24.0253 108.914C24.1949 108.506 24.4281 108.157 24.7249 107.866C25.0217 107.566 25.3662 107.329 25.7584 107.157C26.1612 106.974 26.5852 106.883 27.0304 106.883H40.0524C40.4976 106.883 40.9163 106.974 41.3085 107.157C41.7113 107.329 42.0611 107.566 42.3579 107.866C42.6547 108.157 42.8879 108.506 43.0575 108.914C43.2271 109.312 43.3119 109.736 43.3119 110.188V126.696ZM27.0304 110.188V126.696H40.0524V110.188H27.0304Z" fill="#0099FF"/>
<path d="M68.72 126.696C68.72 127.147 68.6352 127.577 68.4656 127.985C68.296 128.383 68.0628 128.732 67.766 129.033C67.4692 129.334 67.1194 129.571 66.7166 129.743C66.3244 129.915 65.9057 130.001 65.4605 130.001H52.4385C51.9933 130.001 51.5693 129.915 51.1665 129.743C50.7743 129.571 50.4298 129.334 50.133 129.033C49.8362 128.732 49.603 128.383 49.4334 127.985C49.2638 127.577 49.179 127.147 49.179 126.696V110.188C49.179 109.736 49.2638 109.312 49.4334 108.914C49.603 108.506 49.8362 108.157 50.133 107.866C50.4298 107.566 50.7743 107.329 51.1665 107.157C51.5693 106.974 51.9933 106.883 52.4385 106.883H65.4605C65.9057 106.883 66.3244 106.974 66.7166 107.157C67.1194 107.329 67.4692 107.566 67.766 107.866C68.0628 108.157 68.296 108.506 68.4656 108.914C68.6352 109.312 68.72 109.736 68.72 110.188V126.696ZM52.4385 110.188V126.696H65.4605V110.188H52.4385Z" fill="#0099FF"/>
<path d="M77.8466 106.883V116.862L88.7221 106.883H93.3172L80.9789 118.216L93.8101 130.001H89.215L77.8466 119.603V130.001H74.5871V106.883H77.8466Z" fill="#0099FF"/>
<path d="M100.043 106.883V130.001H96.7834V106.883H100.043Z" fill="#0099FF"/>
<path d="M109.169 130.001H105.91V106.883H109.169L122.875 124.81V106.883H126.135V130.001H122.875L109.169 112.074V130.001Z" fill="#0099FF"/>
<path d="M131.986 110.188C131.986 109.736 132.071 109.312 132.24 108.914C132.41 108.506 132.643 108.157 132.94 107.866C133.237 107.566 133.581 107.329 133.973 107.157C134.376 106.974 134.8 106.883 135.245 106.883H147.616C148.061 106.883 148.479 106.974 148.872 107.157C149.274 107.329 149.624 107.566 149.921 107.866C150.218 108.157 150.451 108.506 150.621 108.914C150.79 109.312 150.875 109.736 150.875 110.188V113.17H147.616V110.188H135.245V126.696H147.616V121.086H141.43V117.781H150.875V126.696C150.875 127.147 150.79 127.577 150.621 127.985C150.451 128.383 150.218 128.732 149.921 129.033C149.624 129.334 149.274 129.571 148.872 129.743C148.479 129.915 148.061 130.001 147.616 130.001H135.245C134.8 130.001 134.376 129.915 133.973 129.743C133.581 129.571 133.237 129.334 132.94 129.033C132.643 128.732 132.41 128.383 132.24 127.985C132.071 127.577 131.986 127.147 131.986 126.696V110.188Z" fill="#0099FF"/>
</svg>
